<svg xmlns="http://www.w3.org/2000/svg" width="22" height="18.95" viewBox="0 0 22 18.95">
  <g id="iconfinder_users-groups_511933" transform="translate(-5 -6.05)">
    <g id="Group_1" data-name="Group 1">
      <path id="Path_3" data-name="Path 3" d="M10.039,17.473a7.809,7.809,0,0,0,1.259.385,14.817,14.817,0,0,1,3-1.095,6.129,6.129,0,0,1-.514-.769A5.784,5.784,0,0,1,13,16.05a5.9,5.9,0,0,1-2.692-.651A12.385,12.385,0,0,0,5,17.342V22H9V20H7V18.46A11.564,11.564,0,0,1,10.039,17.473Z" fill="#260126"/>
      <path id="Path_4" data-name="Path 4" d="M13,14.05c.029,0,.056-.008.086-.009A5.881,5.881,0,0,1,13,13.05a5.99,5.99,0,0,1,.092-1.009c-.031,0-.06.009-.092.009a2,2,0,1,1,1.653-3.124,6.034,6.034,0,0,1,1.592-1.2A4,4,0,1,0,13,14.05Z" fill="#260126"/>
      <path id="Path_5" data-name="Path 5" d="M15,13.05a4,4,0,1,0,4-4A4,4,0,0,0,15,13.05Zm4-2a2,2,0,1,1-2,2A2,2,0,0,1,19,11.05Z" fill="#260126"/>
      <path id="Path_6" data-name="Path 6" d="M21.692,18.4a5.891,5.891,0,0,1-5.384,0A12.39,12.39,0,0,0,11,20.342V25H27V20.344A12.371,12.371,0,0,0,21.692,18.4ZM25,23H13V21.46a11.564,11.564,0,0,1,3.039-.987,7.892,7.892,0,0,0,5.922,0A11.49,11.49,0,0,1,25,21.462Z" fill="#260126"/>
    </g>
  </g>
</svg>
