<svg xmlns="http://www.w3.org/2000/svg" width="28.649" height="14.868" viewBox="0 0 28.649 14.868">
  <g id="iconfinder_view6_216550" transform="translate(0 -7.308)">
    <path id="Path_1" data-name="Path 1" d="M27.6,12.929c-2.763-2.246-7.408-5.511-13.256-5.621h-.036C8.464,7.42,3.812,10.683,1.052,12.929A2.557,2.557,0,0,0,0,14.616a1.891,1.891,0,0,0,.7,1.47c2.255,2.182,7.176,6.059,13.609,6.088v0h.036v0c6.445-.029,11.354-3.906,13.607-6.088a1.892,1.892,0,0,0,.7-1.47A2.556,2.556,0,0,0,27.6,12.929ZM14.326,20.5a5.756,5.756,0,1,1,5.718-5.756A5.757,5.757,0,0,1,14.326,20.5Z" fill="#260126"/>
    <path id="Path_2" data-name="Path 2" d="M14.344,12.5h-.036a2.237,2.237,0,0,0,0,4.472v0l.018,0,.018,0v0a2.237,2.237,0,0,0,0-4.472Z" fill="#260126"/>
  </g>
</svg>
