<svg xmlns="http://www.w3.org/2000/svg" width="24.073" height="21.643" viewBox="0 0 24.073 21.643">
  <g id="iconfinder_house-home-export-real_estate-property-outline-stroke_763219" transform="translate(0.203 -1.357)">
    <g id="Artboard-1" transform="translate(-503 -659)">
      <path id="house-home-export-real_estate-property-outline-stroke" d="M522.654,669.923l.346.277V682H505V670.2l1-.8V681h5v-9h6v9h5.007L522,670.256Zm-5.138-5.424L514,661.658,503.426,670.2l-.629-.777,11.2-9.069,4.608,3.73a9.018,9.018,0,0,0-1.092.412Zm6.1,4.933.955.771.629-.777-.607-.492-.977.5ZM512,681h4v-8h-4Zm-8-19h3v2.737l-1,.809V663h-1v3.356l-1,.809Zm9.831,9c3.1-5,6.8-4.113,7.91-3.776l-.31,2.2,5.439-2.77-4.464-4.162-.314,2.229C520.5,664.593,515.036,664.721,513.831,671Z" fill="#260126" fill-rule="evenodd"/>
    </g>
  </g>
</svg>
