<svg xmlns="http://www.w3.org/2000/svg" width="494.4" height="500" viewBox="0 0 494.4 500">
  <g id="iconfinder_13_2302938" transform="translate(-8.8 -6)">
    <path id="XMLID_1062_" d="M9.5,482l61.2,24L70.6,49.5,8.8,122.8Z" fill="#260126"/>
    <path id="XMLID_1061_" d="M502.5,482l-65.4,24V51.6l66.1,71.2Z" fill="#260126"/>
    <path id="XMLID_1060_" d="M72.4,49.8V505H224.1V177Zm69.5,433H88V463.5h53.8l.1,19.3Zm0-30.7H88V432.8h53.8l.1,19.3Zm0-30.6H88V402.2h53.8l.1,19.3Zm0-30.7H88V371.5h53.8l.1,19.3Zm0-30.7H88V340.8h53.8l.1,19.3Zm0-30.6H88V310.2h53.8l.1,19.3Zm0-30.7H88V279.5h53.8l.1,19.3Zm0-30.6H88V248.9h53.8l.1,19.3Zm0-30.7H88V218.2h53.8l.1,19.3Zm0-30.7H88V187.5h53.8l.1,19.3Zm0-30.7H88V156.8h53.8l.1,19.3Zm0-38.6H88V118.2h53.8l.1,19.3Zm66.6,345.3H154.7V463.5h53.8Zm0-30.7H154.7V432.8h53.8Zm0-30.6H154.7V402.2h53.8Zm0-30.7H154.7V371.5h53.8Zm0-30.7H154.7V340.8h53.8Zm0-30.6H154.7V310.2h53.8Zm0-30.7H154.7V279.5h53.8Zm0-30.6H154.7V248.9h53.8Zm0-30.7H154.7V218.2h53.8Zm0-30.7H154.7V187.5h53.8Z" fill="#260126"/>
    <path id="XMLID_1063_" d="M283.6,173.5V505.6H435.3V52ZM353,482.8H299.2V463.5H353Zm0-30.7H299.2V432.8H353Zm0-30.6H299.2V402.2H353Zm0-30.7H299.2V371.5H353Zm0-30.7H299.2V340.8H353Zm0-30.6H299.2V310.2H353Zm0-30.7H299.2V279.5H353Zm0-30.6H299.2V248.9H353Zm0-30.7H299.2V218.2H353Zm0-30.7H299.2V187.5H353Zm66.7,276H365.9V463.5h53.8Zm0-30.7H365.9V432.8h53.8Zm0-30.6H365.9V402.2h53.8Zm0-30.7H365.9V371.5h53.8Zm0-30.7H365.9V340.8h53.8Zm0-30.6H365.9V310.2h53.8Zm0-30.7H365.9V279.5h53.8Zm0-30.6H365.9V248.9h53.8Zm0-30.7H365.9V218.2h53.8Zm0-30.7H365.9V187.5h53.8Zm0-30.7H365.9V156.8h53.8Zm0-38.6H365.9V118.2h53.8Z" fill="#260126"/>
    <path id="XMLID_1064_" d="M225.4,56.2V504.5h54.1V56.2ZM245,501H234.3V58.6H245Zm25.6,0H259.9V58.6h10.7Z" fill="#260126"/>
    <path id="XMLID_1065_" d="M62.1,6V65.8H469.9V6ZM459.4,47.7H72.7V20.4H459.4V47.7Z" fill="#260126"/>
  </g>
</svg>
