<svg xmlns="http://www.w3.org/2000/svg" width="1408" height="1536" viewBox="0 0 1408 1536">
  <path id="iconfinder_user_1608727" d="M1600,1405q0,120-73,189.5T1333,1664H459q-121,0-194-69.5T192,1405q0-53,3.5-103.5a1018.459,1018.459,0,0,1,14-109A847.588,847.588,0,0,1,236,1084a514.055,514.055,0,0,1,43-97.5q27-47.5,62-81T426.5,852Q477,832,538,832q9,0,42,21.5t74.5,48q41.5,26.5,108,48T896,971q67,0,133.5-21.5t108-48q41.5-26.5,74.5-48t42-21.5q61,0,111.5,20t85.5,53.5q35,33.5,62,81a514.052,514.052,0,0,1,43,97.5,847.6,847.6,0,0,1,26.5,108.5,1018.471,1018.471,0,0,1,14,109Q1600,1352,1600,1405ZM1280,512q0,159-112.5,271.5T896,896q-159,0-271.5-112.5T512,512q0-159,112.5-271.5T896,128q159,0,271.5,112.5T1280,512Z" transform="translate(-192 -128)" fill="#260126"/>
</svg>
