<svg id="iconfinder_13_2300999" xmlns="http://www.w3.org/2000/svg" width="512" height="512" viewBox="0 0 512 512">
  <path id="XMLID_1646_" d="M256,0C397.385,0,512,114.615,512,256S397.385,512,256,512,0,397.385,0,256,114.615,0,256,0Z" fill="#260126"/>
  <g id="XMLID_1059_">
    <path id="XMLID_1062_" d="M98.2,400.6,137.4,416l-.1-292.2-39.5,47Z" fill="#fff"/>
    <path id="XMLID_1061_" d="M413.8,400.6,371.9,416V125.2l42.3,45.6Z" fill="#fff"/>
    <path id="XMLID_1060_" d="M138.5,124V415.3h97.1V205.4ZM183,401.2H148.5V388.8h34.4l.1,12.4Zm0-19.7H148.5V369.1h34.4l.1,12.4Zm0-19.6H148.5V349.5h34.4l.1,12.4Zm0-19.6H148.5V329.9h34.4l.1,12.4Zm0-19.7H148.5V310.2h34.4l.1,12.4Zm0-19.6H148.5V290.6h34.4L183,303Zm0-19.6H148.5V271h34.4l.1,12.4Zm0-19.6H148.5V251.4h34.4l.1,12.4Zm0-19.6H148.5V231.8h34.4l.1,12.4Zm0-19.7H148.5V212.1h34.4l.1,12.4Zm0-19.6H148.5V192.5h34.4l.1,12.4Zm0-24.7H148.5V167.8h34.4l.1,12.4Zm42.6,221H191.2V388.8h34.4Zm0-19.7H191.2V369.1h34.4Zm0-19.6H191.2V349.5h34.4Zm0-19.6H191.2V329.9h34.4Zm0-19.7H191.2V310.2h34.4Zm0-19.6H191.2V290.6h34.4Zm0-19.6H191.2V271h34.4Zm0-19.6H191.2V251.4h34.4Zm0-19.6H191.2V231.8h34.4Zm0-19.7H191.2V212.1h34.4Z" fill="#fff"/>
    <path id="XMLID_1063_" d="M273.7,203.2V415.7h97.1V125.4Zm44.4,198H283.7V388.8h34.4Zm0-19.7H283.7V369.1h34.4Zm0-19.6H283.7V349.5h34.4Zm0-19.6H283.7V329.9h34.4Zm0-19.7H283.7V310.2h34.4Zm0-19.6H283.7V290.6h34.4Zm0-19.6H283.7V271h34.4Zm0-19.6H283.7V251.4h34.4Zm0-19.6H283.7V231.8h34.4Zm0-19.7H283.7V212.1h34.4Zm42.7,176.7H326.4V388.8h34.4Zm0-19.7H326.4V369.1h34.4Zm0-19.6H326.4V349.5h34.4Zm0-19.6H326.4V329.9h34.4Zm0-19.7H326.4V310.2h34.4Zm0-19.6H326.4V290.6h34.4Zm0-19.6H326.4V271h34.4Zm0-19.6H326.4V251.4h34.4Zm0-19.6H326.4V231.8h34.4Zm0-19.7H326.4V212.1h34.4Zm0-19.6H326.4V192.5h34.4Zm0-24.7H326.4V167.8h34.4Z" fill="#fff"/>
    <path id="XMLID_1064_" d="M236.4,128.1V415H271V128.1ZM249,412.8h-6.8V129.7H249Zm16.3,0h-6.8V129.7h6.8Z" fill="#fff"/>
    <path id="XMLID_1065_" d="M131.9,96v38.3h261V96Zm254.3,26.7H138.7V105.2H386.2v17.5Z" fill="#fff"/>
  </g>
</svg>
