<svg xmlns="http://www.w3.org/2000/svg" width="18" height="46.996" viewBox="0 0 18 46.996">
  <g id="iconfinder_key__security__access__property_2538722" transform="translate(-17 -2.502)">
    <path id="Path_14" data-name="Path 14" d="M32.61,11.5l1.03-1.03a4.674,4.674,0,0,0-6.61-6.61L26,4.892l-1.02-1.03a4.674,4.674,0,0,0-6.61,6.61L19.4,11.5l-1.03,1.02a4.674,4.674,0,1,0,6.61,6.61L25,19.108V49.5h2v-2h6v-2H27v-2h4v-2H27v-2h5v-2H27V19.106l.026.026a4.674,4.674,0,0,0,6.61-6.61Z" fill="#260126"/>
  </g>
</svg>
