<svg xmlns="http://www.w3.org/2000/svg" width="973.125" height="973.078" viewBox="0 0 973.125 973.078">
  <path id="iconfinder_search_298865" d="M960,832,710.875,582.875C746.438,524.812,768,457.156,768,384,768,171.969,596,0,384,0,171.969,0,0,171.969,0,384,0,596,171.969,768,384,768c73.156,0,140.812-21.562,198.875-57L832,960c17.5,17.5,46.5,17.375,64,0l64-64A45.572,45.572,0,0,0,960,832ZM384,640c-141.375,0-256-114.625-256-256S242.625,128,384,128,640,242.625,640,384,525.375,640,384,640Z" fill="#260126"/>
</svg>
