<svg xmlns="http://www.w3.org/2000/svg" width="416.008" height="256" viewBox="0 0 416.008 256">
  <g id="iconfinder_icon-email_211660" transform="translate(-48 -128)">
    <path id="Path_1" data-name="Path 1" d="M67,148.7c11,5.8,163.8,89.1,169.5,92.1s11.5,4.4,20.5,4.4,14.8-1.4,20.5-4.4S436,154.5,447,148.7c4.1-2.1,11-5.9,12.5-10.2,2.6-7.6-.2-10.5-11.3-10.5H65.8c-11.1,0-13.9,3-11.3,10.5C56,142.9,62.9,146.6,67,148.7Z" fill="#260126"/>
    <path id="Path_2" data-name="Path 2" d="M455.7,153.2c-8.2,4.2-81.8,56.6-130.5,88.1l82.2,92.5c2,2,2.9,4.4,1.8,5.6-1.2,1.1-3.8.5-5.9-1.4l-98.6-83.2c-14.9,9.6-25.4,16.2-27.2,17.2-7.7,3.9-13.1,4.4-20.5,4.4s-12.8-.5-20.5-4.4c-1.9-1-12.3-7.6-27.2-17.2L110.7,338c-2,2-4.7,2.6-5.9,1.4-1.2-1.1-.3-3.6,1.7-5.6l82.1-92.5c-48.7-31.5-123.1-83.9-131.3-88.1-8.8-4.5-9.3.8-9.3,4.9v205c0,9.3,13.7,20.9,23.5,20.9h371c9.8,0,21.5-11.7,21.5-20.9v-205C464,153.9,464.6,148.7,455.7,153.2Z" fill="#260126"/>
  </g>
</svg>
