<svg xmlns="http://www.w3.org/2000/svg" width="496.262" height="406.26" viewBox="0 0 496.262 406.26">
  <g id="nigeria-naira-currency-symbol" transform="translate(0 -45.001)">
    <path id="Path_5" data-name="Path 5" d="M477.832,274.28H410.089V209.174h67.743a18.427,18.427,0,1,0,0-36.854H410.089V81.982c0-13.187-2.606-22.866-7.743-28.762-4.882-5.609-11.3-8.219-20.19-8.219-8.482,0-14.659,2.592-19.447,8.166-5.077,5.9-7.654,15.6-7.654,28.821v90.343H227.627L173.446,90.343c-4.637-7.317-9-14.171-13.231-20.75a92.286,92.286,0,0,0-11.042-14.351,35.341,35.341,0,0,0-10.8-7.554c-3.91-1.785-8.881-2.681-14.762-2.681a37.281,37.281,0,0,0-20.83,6.277A34.475,34.475,0,0,0,89.149,67.069c-2.391,6.126-3.656,15.513-3.656,27.63v77.626H18.423a18.427,18.427,0,0,0,0,36.854h67.07v65.113H18.424a18.424,18.424,0,0,0,0,36.848h67.07V414.283c0,12.8,2.689,22.378,8.015,28.466,5.065,5.8,11.487,8.5,20.208,8.5,8.414,0,14.786-2.707,20.07-8.523,5.411-5.958,8.148-15.533,8.148-28.442V311.14H257.243l62.4,95.683c4.339,6.325,8.819,12.709,13.287,18.969A89.782,89.782,0,0,0,346,440.5a40.7,40.7,0,0,0,13.316,8.157,49.2,49.2,0,0,0,16.615,2.6c16.875,0,34.158-5.166,34.158-43.479V311.14H477.83a18.43,18.43,0,0,0,0-36.86ZM355.054,209.173v65.106H295.013l-43.021-65.106H355.054ZM141.936,134.364,166.7,172.32h-24.76Zm0,139.916V209.174h48.8L233.2,274.28Zm213.118,90.873L319.371,311.14h35.683v54.013Z" fill="#260126"/>
  </g>
</svg>
