<svg xmlns="http://www.w3.org/2000/svg" width="48" height="48" viewBox="0 0 48 48">
  <g id="iconfinder_city-building-urban-office-business_3209372" transform="translate(-1 -1)">
    <rect id="Rectangle_2" data-name="Rectangle 2" width="2" height="2" transform="translate(21 18)" fill="#260126"/>
    <rect id="Rectangle_3" data-name="Rectangle 3" width="2" height="2" transform="translate(25 18)" fill="#260126"/>
    <rect id="Rectangle_4" data-name="Rectangle 4" width="2" height="2" transform="translate(29 18)" fill="#260126"/>
    <rect id="Rectangle_5" data-name="Rectangle 5" width="2" height="2" transform="translate(33 18)" fill="#260126"/>
    <rect id="Rectangle_6" data-name="Rectangle 6" width="2" height="2" transform="translate(21 22)" fill="#260126"/>
    <rect id="Rectangle_7" data-name="Rectangle 7" width="2" height="2" transform="translate(25 22)" fill="#260126"/>
    <rect id="Rectangle_8" data-name="Rectangle 8" width="2" height="2" transform="translate(29 22)" fill="#260126"/>
    <rect id="Rectangle_9" data-name="Rectangle 9" width="2" height="2" transform="translate(33 22)" fill="#260126"/>
    <rect id="Rectangle_10" data-name="Rectangle 10" width="2" height="2" transform="translate(21 26)" fill="#260126"/>
    <rect id="Rectangle_11" data-name="Rectangle 11" width="2" height="2" transform="translate(25 26)" fill="#260126"/>
    <rect id="Rectangle_12" data-name="Rectangle 12" width="2" height="2" transform="translate(29 26)" fill="#260126"/>
    <rect id="Rectangle_13" data-name="Rectangle 13" width="2" height="2" transform="translate(33 26)" fill="#260126"/>
    <rect id="Rectangle_14" data-name="Rectangle 14" width="2" height="2" transform="translate(21 30)" fill="#260126"/>
    <rect id="Rectangle_15" data-name="Rectangle 15" width="2" height="2" transform="translate(25 30)" fill="#260126"/>
    <rect id="Rectangle_16" data-name="Rectangle 16" width="2" height="2" transform="translate(29 30)" fill="#260126"/>
    <rect id="Rectangle_17" data-name="Rectangle 17" width="2" height="2" transform="translate(33 30)" fill="#260126"/>
    <rect id="Rectangle_18" data-name="Rectangle 18" width="2" height="2" transform="translate(5 24)" fill="#260126"/>
    <rect id="Rectangle_19" data-name="Rectangle 19" width="2" height="2" transform="translate(9 24)" fill="#260126"/>
    <rect id="Rectangle_20" data-name="Rectangle 20" width="2" height="2" transform="translate(13 24)" fill="#260126"/>
    <rect id="Rectangle_21" data-name="Rectangle 21" width="2" height="2" transform="translate(5 28)" fill="#260126"/>
    <rect id="Rectangle_22" data-name="Rectangle 22" width="2" height="2" transform="translate(9 28)" fill="#260126"/>
    <rect id="Rectangle_23" data-name="Rectangle 23" width="2" height="2" transform="translate(13 28)" fill="#260126"/>
    <rect id="Rectangle_24" data-name="Rectangle 24" width="2" height="2" transform="translate(5 32)" fill="#260126"/>
    <rect id="Rectangle_25" data-name="Rectangle 25" width="2" height="2" transform="translate(9 32)" fill="#260126"/>
    <rect id="Rectangle_26" data-name="Rectangle 26" width="2" height="2" transform="translate(13 32)" fill="#260126"/>
    <rect id="Rectangle_27" data-name="Rectangle 27" width="2" height="2" transform="translate(5 36)" fill="#260126"/>
    <rect id="Rectangle_28" data-name="Rectangle 28" width="2" height="2" transform="translate(9 36)" fill="#260126"/>
    <rect id="Rectangle_29" data-name="Rectangle 29" width="2" height="2" transform="translate(13 36)" fill="#260126"/>
    <rect id="Rectangle_30" data-name="Rectangle 30" width="4" height="2" transform="translate(41 22)" fill="#260126"/>
    <rect id="Rectangle_31" data-name="Rectangle 31" width="4" height="2" transform="translate(41 18)" fill="#260126"/>
    <rect id="Rectangle_32" data-name="Rectangle 32" width="4" height="2" transform="translate(41 26)" fill="#260126"/>
    <rect id="Rectangle_33" data-name="Rectangle 33" width="4" height="2" transform="translate(41 30)" fill="#260126"/>
    <rect id="Rectangle_34" data-name="Rectangle 34" width="4" height="2" transform="translate(41 34)" fill="#260126"/>
    <rect id="Rectangle_35" data-name="Rectangle 35" width="4" height="2" transform="translate(41 38)" fill="#260126"/>
    <rect id="Rectangle_36" data-name="Rectangle 36" width="4" height="2" transform="translate(41 42)" fill="#260126"/>
    <path id="Path_13" data-name="Path 13" d="M46,9H44v3.979l-7-4.9V14H34V7H29V1H27V7H22v7H17v6H5V18.414l1.243-1.243a5,5,0,0,0,6.292-.635l.707-.707L6.172,8.758l-.707.707a5.008,5.008,0,0,0-.636,6.292L3,17.586V20H1V49H49V16.479l-3-2.1ZM6.293,11.707l4,4a3.066,3.066,0,0,1-3.415-.587A3,3,0,0,1,6.293,11.707ZM24,9h8v5H24ZM17,47H3V22H17Zm9,0V40h4v7Zm11,0H32V38H24v9H19V16H37Zm10,0H39V11.92l8,5.6Z" fill="#260126"/>
  </g>
</svg>
