<svg id="iconfinder_logout_close_sign_out_exit_access_3994382" xmlns="http://www.w3.org/2000/svg" width="96" height="96" viewBox="0 0 96 96">
  <path id="Path_3" data-name="Path 3" d="M20.484,54H66a6,6,0,0,0,0-12H20.484l7.758-7.758a6,6,0,1,0-8.484-8.484l-18,18a6,6,0,0,0,0,8.484l18,18a6,6,0,1,0,8.484-8.484Z" fill="#260126"/>
  <path id="Path_4" data-name="Path 4" d="M90,0H42a6,6,0,0,0-6,6V18a6,6,0,0,0,12,0V12H84V84H48V78a6,6,0,0,0-12,0V90a6,6,0,0,0,6,6H90a6,6,0,0,0,6-6V6a6,6,0,0,0-6-6Z" fill="#260126"/>
</svg>
